<svg xmlns="http://www.w3.org/2000/svg" version="1.1" xmlns:xlink="http://www.w3.org/1999/xlink" xmlns:svgjs="http://svgjs.com/svgjs" width="48" height="48" x="0" y="0" viewBox="0 0 512 512" style="enable-background:new 0 0 512 512" xml:space="preserve" class=""><g><path d="M365.897 83.761v132.521l-114.766 66.26-114.767-66.26V83.761l114.767-66.26z" style="" fill="#00f2a6" data-original="#00f2a6"></path><path d="m251.131 150.022 114.766-66.261v132.521l-114.766 66.26-114.767-66.26V83.761z" style="" fill="#05e39c" data-original="#05e39c" class=""></path><path d="M365.897 83.761v132.521l-114.766 66.26v-132.52z" style="" fill="#0ed290" data-original="#0ed290" class=""></path><path d="m332.482 235.574 33.415-19.292V83.761l-33.415 19.292z" style="" fill="#00c285" data-original="#00c285"></path><path d="m365.897 83.761-114.766-66.26-32.295 18.645 113.646 66.907z" style="" fill="#05e39c" data-original="#05e39c" class=""></path><path d="m365.897 83.761-114.766-66.26-114.767 66.26V187M199.139 252.525l51.992 30.017M199.139 252.525l51.992 30.017 32.239-18.613" style="stroke-width:15;stroke-linecap:round;stroke-linejoin:round;stroke-miterlimit:10;" fill="none" stroke="#000000" stroke-width="15" stroke-linecap="round" stroke-linejoin="round" stroke-miterlimit="10" data-original="#000000" class=""></path><path d="m313.681 246.429 52.216-30.147V83.761l-114.766 66.261-114.767-66.261h0V187M251.131 150.022v132.52" style="stroke-width:15;stroke-linecap:round;stroke-linejoin:round;stroke-miterlimit:10;" fill="none" stroke="#000000" stroke-width="15" stroke-linecap="round" stroke-linejoin="round" stroke-miterlimit="10" data-original="#000000" class=""></path><path d="M78.469 434.004v-22.262a4.84 4.84 0 0 1 4.84-4.84h8.96c2.053 0 3.863-1.303 4.558-3.235a56.287 56.287 0 0 1 2.02-4.889c.872-1.857.514-4.055-.937-5.506l-6.331-6.331a4.84 4.84 0 0 1 0-6.844l15.742-15.742a4.84 4.84 0 0 1 6.844 0l6.331 6.331c1.451 1.451 3.649 1.809 5.506.937a56.158 56.158 0 0 1 4.889-2.02c1.932-.694 3.235-2.505 3.235-4.558v-8.96a4.84 4.84 0 0 1 4.84-4.84h22.262a4.84 4.84 0 0 1 4.84 4.84v8.96c0 2.053 1.303 3.863 3.235 4.558a56.287 56.287 0 0 1 4.889 2.02c1.857.872 4.055.514 5.506-.937l6.331-6.331a4.84 4.84 0 0 1 6.844 0l15.742 15.742a4.84 4.84 0 0 1 0 6.844l-6.331 6.331c-1.451 1.451-1.809 3.649-.937 5.506a56.029 56.029 0 0 1 2.02 4.889c.694 1.932 2.505 3.235 4.558 3.235h8.96a4.84 4.84 0 0 1 4.84 4.84v22.262a4.84 4.84 0 0 1-4.84 4.84h-8.96c-2.053 0-3.863 1.303-4.558 3.235a56.287 56.287 0 0 1-2.02 4.889c-.872 1.857-.514 4.055.937 5.506l6.331 6.331a4.84 4.84 0 0 1 0 6.844l-15.742 15.742a4.84 4.84 0 0 1-6.844 0l-6.331-6.331c-1.451-1.451-3.649-1.809-5.506-.937a56.029 56.029 0 0 1-4.889 2.02c-1.932.694-3.235 2.505-3.235 4.558v8.96a4.84 4.84 0 0 1-4.84 4.84h-22.262a4.84 4.84 0 0 1-4.84-4.84v-8.96c0-2.053-1.303-3.863-3.235-4.558a56.287 56.287 0 0 1-4.889-2.02c-1.857-.872-4.055-.514-5.506.937l-6.331 6.331a4.84 4.84 0 0 1-6.844 0L91.577 465.65a4.84 4.84 0 0 1 0-6.844l6.331-6.331c1.451-1.451 1.809-3.649.937-5.506a56.029 56.029 0 0 1-2.02-4.889c-.694-1.932-2.505-3.235-4.558-3.235h-8.96a4.841 4.841 0 0 1-4.838-4.841z" style="" fill="#acacac" data-original="#acacac"></path><path d="M216.881 406.903h-8.96c-2.053 0-3.863-1.303-4.558-3.235a56.287 56.287 0 0 0-2.02-4.889c-.872-1.857-.514-4.055.937-5.506l6.331-6.331a4.84 4.84 0 0 0 0-6.844l-15.742-15.742a4.84 4.84 0 0 0-6.844 0l-6.331 6.331c-1.451 1.451-3.649 1.809-5.506.937a56.029 56.029 0 0 0-4.889-2.02c-1.932-.694-3.235-2.505-3.235-4.558v-8.96a4.84 4.84 0 0 0-4.84-4.84h-22.262a4.84 4.84 0 0 0-4.84 4.84v.738C159.9 367.668 178 393.156 178 422.873c0 29.718-18.1 55.205-43.876 66.048v.738a4.84 4.84 0 0 0 4.84 4.839h22.262a4.84 4.84 0 0 0 4.84-4.839v-8.96c0-2.053 1.303-3.863 3.235-4.557a56.287 56.287 0 0 0 4.889-2.02c1.857-.872 4.055-.514 5.506.937l6.331 6.331a4.84 4.84 0 0 0 6.844 0l15.742-15.742a4.84 4.84 0 0 0 0-6.844l-6.331-6.331c-1.451-1.451-1.809-3.649-.937-5.506a56.029 56.029 0 0 0 2.02-4.889c.694-1.932 2.505-3.235 4.558-3.235h8.96a4.84 4.84 0 0 0 4.84-4.84v-22.262a4.842 4.842 0 0 0-4.842-4.838z" style="" fill="#9c9c9c" data-original="#9c9c9c"></path><path d="M78.469 434.004v-22.262a4.84 4.84 0 0 1 4.84-4.84h8.96c2.053 0 3.863-1.303 4.558-3.235a56.287 56.287 0 0 1 2.02-4.889c.872-1.857.514-4.055-.937-5.506l-6.331-6.331a4.84 4.84 0 0 1 0-6.844l15.742-15.742a4.84 4.84 0 0 1 6.844 0l6.331 6.331c1.451 1.451 3.649 1.809 5.506.937a56.158 56.158 0 0 1 4.889-2.02c1.932-.694 3.235-2.505 3.235-4.558v-8.96a4.84 4.84 0 0 1 4.84-4.84h22.262a4.84 4.84 0 0 1 4.84 4.84v8.96c0 2.053 1.303 3.863 3.235 4.558a56.287 56.287 0 0 1 4.889 2.02c1.857.872 4.055.514 5.506-.937l6.331-6.331a4.84 4.84 0 0 1 6.844 0l15.742 15.742a4.84 4.84 0 0 1 0 6.844l-6.331 6.331c-1.451 1.451-1.809 3.649-.937 5.506a56.029 56.029 0 0 1 2.02 4.889c.694 1.932 2.505 3.235 4.558 3.235h8.96a4.84 4.84 0 0 1 4.84 4.84v22.262a4.84 4.84 0 0 1-4.84 4.84h-8.96c-2.053 0-3.863 1.303-4.558 3.235a56.287 56.287 0 0 1-2.02 4.889c-.872 1.857-.514 4.055.937 5.506l6.331 6.331a4.84 4.84 0 0 1 0 6.844l-15.742 15.742a4.84 4.84 0 0 1-6.844 0l-6.331-6.331c-1.451-1.451-3.649-1.809-5.506-.937a56.029 56.029 0 0 1-4.889 2.02c-1.932.694-3.235 2.505-3.235 4.558v8.96a4.84 4.84 0 0 1-4.84 4.84h-22.262a4.84 4.84 0 0 1-4.84-4.84v-8.96c0-2.053-1.303-3.863-3.235-4.558a56.287 56.287 0 0 1-4.889-2.02c-1.857-.872-4.055-.514-5.506.937l-6.331 6.331a4.84 4.84 0 0 1-6.844 0L91.577 465.65a4.84 4.84 0 0 1 0-6.844l6.331-6.331c1.451-1.451 1.809-3.649.937-5.506a56.029 56.029 0 0 1-2.02-4.889c-.694-1.932-2.505-3.235-4.558-3.235h-8.96a4.841 4.841 0 0 1-4.838-4.841z" style="stroke-width:15;stroke-linecap:round;stroke-linejoin:round;stroke-miterlimit:10;" fill="none" stroke="#000000" stroke-width="15" stroke-linecap="round" stroke-linejoin="round" stroke-miterlimit="10" data-original="#000000" class=""></path><path d="M142.405 399.469h15.38a4.84 4.84 0 0 1 3.422 1.417l10.875 10.875a4.839 4.839 0 0 1 1.417 3.422v15.38c0 1.284-.51 2.514-1.417 3.422l-10.875 10.875a4.839 4.839 0 0 1-3.422 1.417h-15.38a4.841 4.841 0 0 1-3.422-1.417l-10.875-10.875a4.839 4.839 0 0 1-1.417-3.422v-15.38c0-1.284.51-2.514 1.417-3.422l10.875-10.875a4.843 4.843 0 0 1 3.422-1.417z" style="" fill="#838383" data-original="#838383"></path><path d="m172.082 411.761-10.875-10.875a4.839 4.839 0 0 0-3.422-1.417h-15.38a4.84 4.84 0 0 0-2.655.797c.274.18.532.385.767.62l10.875 10.875a4.839 4.839 0 0 1 1.417 3.422v15.38c0 1.284-.51 2.514-1.417 3.422l-10.875 10.875a4.83 4.83 0 0 1-.767.62 4.831 4.831 0 0 0 2.655.797h15.38a4.84 4.84 0 0 0 3.422-1.417l10.875-10.875a4.839 4.839 0 0 0 1.417-3.422v-15.38a4.835 4.835 0 0 0-1.417-3.422z" style="" fill="#5a5a5a" data-original="#5a5a5a"></path><path d="M142.405 399.469h15.38a4.84 4.84 0 0 1 3.422 1.417l10.875 10.875a4.839 4.839 0 0 1 1.417 3.422v15.38c0 1.284-.51 2.514-1.417 3.422l-10.875 10.875a4.839 4.839 0 0 1-3.422 1.417h-15.38a4.841 4.841 0 0 1-3.422-1.417l-10.875-10.875a4.839 4.839 0 0 1-1.417-3.422v-15.38c0-1.284.51-2.514 1.417-3.422l10.875-10.875a4.843 4.843 0 0 1 3.422-1.417z" style="stroke-width:15;stroke-linecap:round;stroke-linejoin:round;stroke-miterlimit:10;" fill="none" stroke="#000000" stroke-width="15" stroke-linecap="round" stroke-linejoin="round" stroke-miterlimit="10" data-original="#000000" class=""></path><path d="M244.939 422.873h124.775" style="stroke-width:15;stroke-linecap:round;stroke-linejoin:round;stroke-miterlimit:10;stroke-dasharray:10,25;" fill="none" stroke="#000000" stroke-width="15" stroke-linecap="round" stroke-linejoin="round" stroke-miterlimit="10" stroke-dasharray="10,25" data-original="#000000" class=""></path><path d="M57.386 422.873H22.979c-8.549 0-15.479-6.93-15.479-15.479V153.183c0-8.549 6.93-15.479 15.479-15.479h84.924" style="stroke-width:15;stroke-linecap:round;stroke-linejoin:round;stroke-miterlimit:10;" fill="none" stroke="#000000" stroke-width="15" stroke-linecap="round" stroke-linejoin="round" stroke-miterlimit="10" data-original="#000000" class=""></path><path d="m82.903 162.705 25-25-25-25M444.842 258.5v80.042M392.887 137.705h36.476c8.549 0 15.479 6.93 15.479 15.479V213.5M419.842 313.542l25 25 25-25" style="stroke-width:15;stroke-linecap:round;stroke-linejoin:round;stroke-miterlimit:10;" fill="none" stroke="#000000" stroke-width="15" stroke-linecap="round" stroke-linejoin="round" stroke-miterlimit="10" data-original="#000000" class=""></path><circle cx="444.842" cy="422.873" r="59.658" style="" fill="#05e39c" data-original="#05e39c" class=""></circle><path d="M444.842 363.215c-5.396 0-10.62.729-15.592 2.072 25.384 6.857 44.067 30.034 44.067 57.587s-18.682 50.73-44.067 57.587a59.698 59.698 0 0 0 15.592 2.072c32.948 0 59.658-26.71 59.658-59.658s-26.71-59.66-59.658-59.66z" style="" fill="#0ed290" data-original="#0ed290" class=""></path><path d="M387.797 440.373c7.479 24.408 30.186 42.158 57.044 42.158 32.948 0 59.658-26.71 59.658-59.658s-26.71-59.658-59.658-59.658c-26.858 0-49.565 17.75-57.044 42.158" style="stroke-width:15;stroke-linecap:round;stroke-linejoin:round;stroke-miterlimit:10;" fill="none" stroke="#000000" stroke-width="15" stroke-linecap="round" stroke-linejoin="round" stroke-miterlimit="10" data-original="#000000" class=""></path><path d="m415.718 419.955 23.003 23.003 35.655-35.655" style="stroke-width:15;stroke-linecap:round;stroke-linejoin:round;stroke-miterlimit:10;" fill="none" stroke="#000000" stroke-width="15" stroke-linecap="round" stroke-linejoin="round" stroke-miterlimit="10" data-original="#000000" class=""></path><path d="M43 219.335V317.1a7.435 7.435 0 0 0 7.435 7.435h141.268a7.435 7.435 0 0 0 7.435-7.435v-97.765H43z" style="" fill="#f9f3f1" data-original="#f9f3f1"></path><path d="M168 219.335V317.1a7.435 7.435 0 0 1-7.435 7.435h31.139a7.435 7.435 0 0 0 7.435-7.435v-97.765H168z" style="" fill="#f3eae6" data-original="#f3eae6"></path><path d="M43 281v36.099a7.435 7.435 0 0 0 7.435 7.435h141.268a7.435 7.435 0 0 0 7.435-7.435v-97.021H43V246" style="stroke-width:15;stroke-linecap:round;stroke-linejoin:round;stroke-miterlimit:10;" fill="none" stroke="#000000" stroke-width="15" stroke-linecap="round" stroke-linejoin="round" stroke-miterlimit="10" data-original="#000000" class=""></path><path d="M199.139 220.078H43v-25.643A7.435 7.435 0 0 1 50.435 187h141.268a7.435 7.435 0 0 1 7.435 7.435v25.643z" style="" fill="#26a6fe" data-original="#26a6fe"></path><path d="M191.704 187h-31.139a7.435 7.435 0 0 1 7.435 7.435v25.643h31.139v-25.643a7.435 7.435 0 0 0-7.435-7.435z" style="" fill="#0593fc" data-original="#0593fc"></path><path d="M199.139 220.078H43v-25.643A7.435 7.435 0 0 1 50.435 187h141.268a7.435 7.435 0 0 1 7.435 7.435v25.643zM66.014 296.877h111.215M80.536 259.264v37.613M107.926 266.94v29.937M135.316 243.912v52.965M162.706 274.616v22.261" style="stroke-width:15;stroke-linecap:round;stroke-linejoin:round;stroke-miterlimit:10;" fill="none" stroke="#000000" stroke-width="15" stroke-linecap="round" stroke-linejoin="round" stroke-miterlimit="10" data-original="#000000" class=""></path><circle cx="444.842" cy="236" r="22.5" style="" fill="#fd8087" data-original="#fd8087"></circle><path d="M444.842 213.5c-3.661 0-7.115.88-10.171 2.432C441.985 219.646 447 227.235 447 236s-5.015 16.354-12.329 20.068a22.39 22.39 0 0 0 10.171 2.432c12.427 0 22.5-10.074 22.5-22.5s-10.074-22.5-22.5-22.5z" style="" fill="#fe646f" data-original="#fe646f"></path><circle cx="444.842" cy="236" r="22.5" style="stroke-width:15;stroke-linecap:round;stroke-linejoin:round;stroke-miterlimit:10;" fill="none" stroke="#000000" stroke-width="15" stroke-linecap="round" stroke-linejoin="round" stroke-miterlimit="10" data-original="#000000" class=""></circle></g></svg>
