<svg xmlns="http://www.w3.org/2000/svg" version="1.1" xmlns:xlink="http://www.w3.org/1999/xlink" width="512" height="512" x="0" y="0" viewBox="0 0 512 512" style="enable-background:new 0 0 512 512" xml:space="preserve" class=""><g><g fill-rule="evenodd" clip-rule="evenodd"><path fill="#ffd064" d="M84.13 65.38H150v65.87H84.13z" opacity="1" data-original="#ffd064"></path><g fill="#fe616c"><path d="M184.99 65.38h65.87v65.87h-65.87zM285.84 65.38h65.87v65.87h-65.87zM386.7 65.38h65.87v65.87H386.7zM386.7 163.92h65.87v65.87H386.7zM285.84 163.92h65.87v65.87h-65.87z" fill="#fe616c" opacity="1" data-original="#fe616c"></path></g><path fill="#ffd064" d="M184.99 163.92h65.87v65.87h-65.87zM84.13 163.92H150v65.87H84.13z" opacity="1" data-original="#ffd064"></path><path fill="#00da92" d="M84.13 263.34H150v65.87H84.13z" opacity="1" data-original="#00da92"></path><path fill="#ffd064" d="M184.99 263.34h65.87v65.87h-65.87zM285.84 263.34h65.87v65.87h-65.87z" opacity="1" data-original="#ffd064"></path><path fill="#fe616c" d="M386.7 263.34h65.87v65.87H386.7z" opacity="1" data-original="#fe616c"></path><path fill="#00da92" d="M84.13 361.88H150v65.87H84.13zM184.99 361.88h65.87v65.87h-65.87z" opacity="1" data-original="#00da92"></path><path fill="#ffd064" d="M285.84 361.88h65.87v65.87h-65.87zM386.7 361.88h65.87v65.87H386.7z" opacity="1" data-original="#ffd064"></path><path d="m495.49 473.95-21.64 21.64a5.991 5.991 0 0 1-4.24 1.76 6 6 0 0 1-4.25-10.24l11.41-11.4H42.89c-3.31 0-6-2.69-6-6V35.83l-11.4 11.4a6 6 0 0 1-8.48 0 5.993 5.993 0 0 1 0-8.49L38.65 17.1a5.993 5.993 0 0 1 8.49 0l21.64 21.64c2.34 2.34 2.34 6.14 0 8.49a5.98 5.98 0 0 1-4.24 1.75c-1.54 0-3.07-.58-4.25-1.75l-11.4-11.41V463.7h427.88l-11.41-11.4c-2.34-2.35-2.34-6.15 0-8.49 2.35-2.34 6.15-2.34 8.49 0l21.64 21.64c2.35 2.35 2.35 6.16 0 8.5zM390.7 69.38v57.87h57.87V69.38zm-6 69.87h69.87c3.31 0 6-2.68 6-6V63.38c0-3.31-2.69-6-6-6H384.7c-3.32 0-6 2.69-6 6v69.87c0 3.31 2.68 6 6 6zm6 28.67v57.87h57.87v-57.87zm-6 69.87h69.87c3.31 0 6-2.69 6-6v-69.87c0-3.31-2.69-6-6-6H384.7c-3.32 0-6 2.69-6 6v69.87c0 3.31 2.68 6 6 6zM289.84 69.38v57.87h57.87V69.38zm-6 69.87h69.87c3.32 0 6-2.68 6-6V63.38c0-3.31-2.68-6-6-6h-69.87c-3.31 0-6 2.69-6 6v69.87c0 3.31 2.69 6 6 6zm6 28.67v57.87h57.87v-57.87zm-6 69.87h69.87c3.32 0 6-2.69 6-6v-69.87c0-3.31-2.68-6-6-6h-69.87c-3.31 0-6 2.69-6 6v69.87c0 3.31 2.69 6 6 6zM188.99 69.38v57.87h57.87V69.38zm-6 69.87h69.87c3.31 0 6-2.68 6-6V63.38c0-3.31-2.69-6-6-6h-69.87c-3.32 0-6 2.69-6 6v69.87c0 3.31 2.68 6 6 6zm6 28.67v57.87h57.87v-57.87zm-6 69.87h69.87c3.31 0 6-2.69 6-6v-69.87c0-3.31-2.69-6-6-6h-69.87c-3.32 0-6 2.69-6 6v69.87c0 3.31 2.68 6 6 6zM88.13 69.38v57.87H146V69.38zm-6 69.87H152c3.32 0 6-2.68 6-6V63.38c0-3.31-2.68-6-6-6H82.13c-3.31 0-6 2.69-6 6v69.87c0 3.31 2.69 6 6 6zm6 28.67v57.87H146v-57.87zm-6 69.87H152c3.32 0 6-2.69 6-6v-69.87c0-3.31-2.68-6-6-6H82.13c-3.31 0-6 2.69-6 6v69.87c0 3.31 2.69 6 6 6zm308.57 29.55v57.87h57.87v-57.87zm-6 69.87h69.87c3.31 0 6-2.68 6-6v-69.87c0-3.31-2.69-6-6-6H384.7c-3.32 0-6 2.69-6 6v69.87c0 3.31 2.68 6 6 6zm6 28.67v57.87h57.87v-57.87zm-6 69.87h69.87c3.31 0 6-2.68 6-6v-69.87c0-3.31-2.69-6-6-6H384.7c-3.32 0-6 2.69-6 6v69.87c0 3.32 2.68 6 6 6zm-94.86-168.41v57.87h57.87v-57.87zm-6 69.87h69.87c3.32 0 6-2.68 6-6v-69.87c0-3.31-2.68-6-6-6h-69.87c-3.31 0-6 2.69-6 6v69.87c0 3.31 2.69 6 6 6zm6 28.67v57.87h57.87v-57.87zm-6 69.87h69.87c3.32 0 6-2.68 6-6v-69.87c0-3.31-2.68-6-6-6h-69.87c-3.31 0-6 2.69-6 6v69.87c0 3.32 2.69 6 6 6zm-94.85-168.41v57.87h57.87v-57.87zm-6 69.87h69.87c3.31 0 6-2.68 6-6v-69.87c0-3.31-2.69-6-6-6h-69.87c-3.32 0-6 2.69-6 6v69.87c0 3.31 2.68 6 6 6zm6 28.67v57.87h57.87v-57.87zm-6 69.87h69.87c3.31 0 6-2.68 6-6v-69.87c0-3.31-2.69-6-6-6h-69.87c-3.32 0-6 2.69-6 6v69.87c0 3.32 2.68 6 6 6zM88.13 267.34v57.87H146v-57.87zm-6 69.87H152c3.32 0 6-2.68 6-6v-69.87c0-3.31-2.68-6-6-6H82.13c-3.31 0-6 2.69-6 6v69.87c0 3.31 2.69 6 6 6zm6 28.67v57.87H146v-57.87zm-6 69.87H152c3.32 0 6-2.68 6-6v-69.87c0-3.31-2.68-6-6-6H82.13c-3.31 0-6 2.69-6 6v69.87c0 3.32 2.69 6 6 6z" fill="#000000" opacity="1" data-original="#000000" class=""></path></g></g></svg>