<svg xmlns="http://www.w3.org/2000/svg" version="1.1" xmlns:xlink="http://www.w3.org/1999/xlink" width="512" height="512" x="0" y="0" viewBox="0 0 512 512" style="enable-background:new 0 0 512 512" xml:space="preserve" class=""><g><g fill="#ad1457"><path d="M8.535 435.2h68.266v68.265H17.066a8.532 8.532 0 0 1-8.53-8.531zm0 0" fill="#ad1457" opacity="1" data-original="#ad1457"></path><path d="M76.8 435.2h68.266v68.265H76.801zm0 0" fill="#ad1457" opacity="1" data-original="#ad1457"></path><path d="M145.066 435.2h59.735c4.71 0 8.531 3.82 8.531 8.534v51.2c0 4.71-3.82 8.53-8.531 8.53h-59.735zM76.8 366.934h68.266v68.265H76.801zm0 0" fill="#ad1457" opacity="1" data-original="#ad1457"></path></g><path fill="#e91e63" d="M8.535 435.2H51.2v68.265H17.066a8.532 8.532 0 0 1-8.53-8.531zM76.8 435.2h42.665v68.265H76.8zM145.066 435.2H179.2a8.534 8.534 0 0 1 8.535 8.534v51.2c0 4.71-3.82 8.53-8.535 8.53h-34.133zM51.2 366.934h68.265v68.265H51.199zm0 0" opacity="1" data-original="#e91e63"></path><path fill="#c52828" d="M8.535 366.934h68.266v68.265H8.535zM17.066 298.668h59.735v68.266H8.535v-59.735c0-4.71 3.82-8.531 8.531-8.531zm0 0" opacity="1" data-original="#c52828"></path><path fill="#f44335" d="M8.535 366.934H51.2v68.265H8.535zM17.066 298.668H51.2v68.266H8.535v-59.735c0-4.71 3.82-8.531 8.531-8.531zm0 0" opacity="1" data-original="#f44335"></path><path fill="#2e7d32" d="M76.8 298.668h68.266v68.266H76.801zM375.465 366.934h59.734v68.265h-68.265v-59.734c0-4.711 3.82-8.531 8.53-8.531zm0 0" opacity="1" data-original="#2e7d32"></path><path fill="#2e7d32" d="M145.066 298.668h68.266v59.73a8.533 8.533 0 0 1-8.531 8.536h-59.735zM145.066 230.398h59.735c4.71 0 8.531 3.82 8.531 8.536v59.734h-68.266zm0 0" opacity="1" data-original="#2e7d32"></path><path fill="#ffb301" d="M264.535 17.066v51.2A8.536 8.536 0 0 1 256 76.8h-59.734V8.535H256c4.71 0 8.535 3.82 8.535 8.531zm0 0" opacity="1" data-original="#ffb301"></path><path fill="#ad1457" d="M298.668 264.535v-59.734h68.266v59.734c0 4.711-3.82 8.531-8.536 8.531H307.2a8.532 8.532 0 0 1-8.531-8.53zM298.668 204.8v-59.734c0-4.71 3.82-8.53 8.531-8.53h59.735V204.8zM366.934 204.8v-68.265h68.265v59.73a8.533 8.533 0 0 1-8.531 8.536zM366.934 136.535V76.801a8.533 8.533 0 0 1 8.53-8.535h51.204c4.71 0 8.531 3.82 8.531 8.535v59.734zm0 0" opacity="1" data-original="#ad1457"></path><path fill="#e91e63" d="M298.668 264.535v-59.734h42.664v59.734c0 4.711-3.82 8.531-8.531 8.531h-25.602a8.532 8.532 0 0 1-8.531-8.53zM298.668 204.8v-59.734c0-4.71 3.82-8.53 8.531-8.53h34.133V204.8zM366.934 204.8v-68.265h42.668v59.73a8.534 8.534 0 0 1-8.536 8.536zM366.934 136.535V76.801a8.533 8.533 0 0 1 8.53-8.535h25.602a8.534 8.534 0 0 1 8.536 8.535v59.734zm0 0" opacity="1" data-original="#e91e63"></path><path fill="#ffb301" d="M196.266 8.535v68.266H128V8.535zM128 8.535v68.266H68.266a8.533 8.533 0 0 1-8.532-8.535v-51.2c0-4.71 3.82-8.53 8.532-8.53zm0 0" opacity="1" data-original="#ffb301"></path><path fill="#ffb301" d="M196.266 76.8v59.735c0 4.711-3.82 8.531-8.532 8.531h-51.199a8.533 8.533 0 0 1-8.535-8.53V76.8zm0 0" opacity="1" data-original="#ffb301"></path><path fill="#fdd834" d="M238.934 17.066v51.2a8.534 8.534 0 0 1-8.536 8.535h-34.132V8.535h34.132a8.533 8.533 0 0 1 8.536 8.531zM170.668 8.535v68.266H128V8.535zM102.398 8.535v68.266H68.266a8.533 8.533 0 0 1-8.532-8.535v-51.2c0-4.71 3.82-8.53 8.532-8.53zm0 0" opacity="1" data-original="#fdd834"></path><path fill="#fdd834" d="M170.668 76.8v59.735c0 4.711-3.82 8.531-8.535 8.531h-25.598a8.533 8.533 0 0 1-8.535-8.53V76.8zm0 0" opacity="1" data-original="#fdd834"></path><path fill="#2e7d32" d="M85.332 230.398h59.734v68.27H76.801v-59.734a8.533 8.533 0 0 1 8.531-8.536zm0 0" opacity="1" data-original="#2e7d32"></path><path fill="#4caf50" d="M76.8 298.668h42.665v68.266H76.8zM145.066 298.668h42.668v59.73a8.534 8.534 0 0 1-8.535 8.536h-34.133zM145.066 230.398H179.2a8.534 8.534 0 0 1 8.535 8.536v59.734h-42.668zM85.332 230.398h34.133v68.27H76.8v-59.734a8.533 8.533 0 0 1 8.531-8.536zm0 0" opacity="1" data-original="#4caf50"></path><path fill="#2e7d32" d="M435.2 366.934h68.265v68.265h-68.266zm0 0" opacity="1" data-original="#2e7d32"></path><path fill="#67b9cc" d="M435.2 298.668h68.265v68.266h-68.266zM435.2 230.398h68.265v68.27h-68.266zM435.2 162.133h59.734c4.71 0 8.53 3.82 8.53 8.535v59.73H435.2zm0 0" opacity="1" data-original="#67b9cc" class=""></path><path fill="#ffb301" d="M307.2 435.2h59.734v68.265h-59.735a8.532 8.532 0 0 1-8.531-8.531v-51.2a8.533 8.533 0 0 1 8.531-8.535zm0 0" opacity="1" data-original="#ffb301"></path><path fill="#fdd834" d="M307.2 435.2h34.132v68.265h-34.133a8.532 8.532 0 0 1-8.531-8.531v-51.2a8.533 8.533 0 0 1 8.531-8.535zm0 0" opacity="1" data-original="#fdd834"></path><path fill="#2e7d32" d="M366.934 435.2h68.265v68.265h-68.265zm0 0" opacity="1" data-original="#2e7d32"></path><path fill="#2e7d32" d="M435.2 435.2h68.265v59.734c0 4.71-3.82 8.53-8.531 8.53h-59.735zm0 0" opacity="1" data-original="#2e7d32"></path><path fill="#4caf50" d="M375.465 366.934h34.137v68.265h-42.668v-59.734c0-4.711 3.82-8.531 8.53-8.531zM435.2 366.934h42.667v68.265H435.2zM366.934 435.2h42.668v68.265h-42.668zM435.2 435.2h42.667v59.734c0 4.71-3.82 8.53-8.535 8.53h-34.133zm0 0" opacity="1" data-original="#4caf50"></path><path d="M204.8 221.867H85.333c-9.426 0-17.066 7.64-17.066 17.067v51.199h-51.2C7.641 290.133 0 297.773 0 307.199v187.735C0 504.359 7.64 512 17.066 512h187.735c9.426 0 17.066-7.64 17.066-17.066v-51.2c0-9.425-7.64-17.066-17.066-17.066h-51.2v-51.203h51.2c9.426 0 17.066-7.64 17.066-17.067V238.934c0-9.426-7.64-17.067-17.066-17.067zm0 68.266h-51.198v-51.2H204.8zm-68.265 136.535H85.332v-51.203h51.203zM17.066 375.465h51.2v51.203h-51.2zm68.266-17.067V307.2h51.203v51.2zm0-119.464h51.203v51.199H85.332zm-68.266 68.265h51.2v51.2h-51.2zm0 136.535h51.2v51.2h-51.2zm68.266 0h51.203v51.2H85.332zm119.469 51.2h-51.2v-51.2h51.2zm-51.2-136.536V307.2h51.2v51.2zM256 0H68.266C58.84 0 51.199 7.64 51.199 17.066v51.2c0 9.425 7.64 17.066 17.067 17.066h51.199v51.203c0 9.426 7.644 17.067 17.07 17.067h51.2c9.425 0 17.066-7.641 17.066-17.067V85.332H256c9.426 0 17.066-7.64 17.066-17.066v-51.2C273.066 7.641 265.426 0 256 0zm-68.266 68.266h-51.199v-51.2h51.2zm-119.468-51.2h51.199v51.2h-51.2zm119.468 119.47h-51.199V85.331h51.2zM256 68.265h-51.2v-51.2H256zM494.934 153.602h-51.2V76.8c0-9.426-7.64-17.067-17.066-17.067h-51.203c-9.426 0-17.067 7.641-17.067 17.067V128H307.2c-9.426 0-17.066 7.64-17.066 17.066v119.47c0 9.425 7.64 17.066 17.066 17.066h51.2c9.425 0 17.066-7.641 17.066-17.067v-51.203h51.203v145.066h-51.203c-9.426 0-17.067 7.641-17.067 17.067v51.203H307.2c-9.426 0-17.066 7.64-17.066 17.066v51.2c0 9.425 7.64 17.066 17.066 17.066h187.735c9.425 0 17.066-7.64 17.066-17.066V170.668c0-9.426-7.64-17.066-17.066-17.066zm0 136.53h-51.2v-51.198h51.2zm-51.2 17.067h51.2v51.2h-51.2zm0 68.266h51.2v51.203h-51.2zm51.2-204.797v51.2h-51.2v-51.2zm-119.47-93.867h51.204V128h-51.203zM307.2 145.066h51.2v51.2h-51.2zm51.2 119.47h-51.2v-51.204h51.2zm17.066-68.27v-51.2h51.203v51.2zm0 179.199h51.203v51.203h-51.203zm-68.266 68.27h51.2v51.199h-51.2zm68.266 0h51.203v51.199h-51.203zm68.27 51.199v-51.2h51.199v51.2zm0 0" fill="#000000" opacity="1" data-original="#000000"></path><path d="M341.332 102.398V17.066c0-4.71-3.82-8.53-8.531-8.53a8.533 8.533 0 0 0-8.535 8.53v85.332a8.534 8.534 0 1 0 17.066 0zM409.602 34.133V8.535a8.534 8.534 0 1 0-17.067 0v25.598a8.533 8.533 0 1 0 17.067 0zM307.2 59.734V34.133c0-4.711-3.821-8.531-8.532-8.531a8.533 8.533 0 0 0-8.535 8.53v25.602c0 4.711 3.82 8.532 8.535 8.532 4.71 0 8.531-3.82 8.531-8.532zM93.867 187.734v-68.27c0-4.71-3.82-8.53-8.535-8.53a8.532 8.532 0 0 0-8.531 8.53v68.27c0 4.711 3.82 8.532 8.531 8.532a8.533 8.533 0 0 0 8.535-8.532zM238.934 102.398a8.534 8.534 0 0 0-8.536 8.536v76.8c0 4.711 3.82 8.532 8.536 8.532 4.71 0 8.53-3.82 8.53-8.532v-76.8a8.533 8.533 0 0 0-8.53-8.536zM170.668 196.266v-17.067c0-4.71-3.82-8.531-8.535-8.531a8.532 8.532 0 0 0-8.531 8.531v17.067a8.533 8.533 0 1 0 17.066 0zM332.8 375.465v-68.266c0-4.71-3.82-8.531-8.534-8.531a8.532 8.532 0 0 0-8.532 8.531v68.266a8.533 8.533 0 1 0 17.067 0zM401.066 332.8v-42.667a8.533 8.533 0 0 0-17.066 0V332.8c0 4.71 3.82 8.531 8.535 8.531 4.711 0 8.531-3.82 8.531-8.531zm0 0" fill="#000000" opacity="1" data-original="#000000"></path></g></svg>