<svg xmlns="http://www.w3.org/2000/svg" version="1.1" xmlns:xlink="http://www.w3.org/1999/xlink" width="512" height="512" x="0" y="0" viewBox="0 0 682.667 682.667" style="enable-background:new 0 0 512 512" xml:space="preserve" class=""><g><defs><clipPath id="a" clipPathUnits="userSpaceOnUse"><path d="M0 512h512V0H0Z" fill="#000000" opacity="1" data-original="#000000"></path></clipPath></defs><g clip-path="url(#a)" transform="matrix(1.33333 0 0 -1.33333 0 682.667)"><path d="M0 0h-407.465c-8.284 0-15 6.715-15 15v272.087H15V15C15 6.715 8.284 0 0 0" style="fill-opacity:1;fill-rule:nonzero;stroke:none" transform="translate(429.965 84.677)" fill="#d4f3f6" data-original="#d4f3f6"></path><path d="M0 0v272.087h-50.5V0c0-8.284 6.716-15 15-15H15C6.716-15 0-8.284 0 0" style="fill-opacity:1;fill-rule:nonzero;stroke:none" transform="translate(58 99.677)" fill="#a6e7f0" data-original="#a6e7f0"></path><path d="M0 0h-407.465c-8.284 0-15 6.715-15 15v272.087H15V15C15 6.715 8.284 0 0 0Z" style="stroke-width:15;stroke-linecap:round;stroke-linejoin:round;stroke-miterlimit:10;stroke-dasharray:none;stroke-opacity:1" transform="translate(429.965 84.677)" fill="none" stroke="#000000" stroke-width="15" stroke-linecap="round" stroke-linejoin="round" stroke-miterlimit="10" stroke-dasharray="none" stroke-opacity="" data-original="#000000"></path><path d="M0 0h-422.465c-8.284 0-15-6.716-15-15v-43.862H0Z" style="fill-opacity:1;fill-rule:nonzero;stroke:none" transform="translate(444.965 430.626)" fill="#fe646f" data-original="#fe646f"></path><path d="M0 0h-50.5c-8.284 0-15-6.716-15-15v-43.862H-15V-15C-15-6.716-8.284 0 0 0" style="fill-opacity:1;fill-rule:nonzero;stroke:none" transform="translate(73 430.626)" fill="#fb2b3a" data-original="#fb2b3a"></path><path d="M0 0h-422.465c-8.284 0-15-6.716-15-15v-43.862H0Z" style="stroke-width:15;stroke-linecap:round;stroke-linejoin:round;stroke-miterlimit:10;stroke-dasharray:none;stroke-opacity:1" transform="translate(444.965 430.626)" fill="none" stroke="#000000" stroke-width="15" stroke-linecap="round" stroke-linejoin="round" stroke-miterlimit="10" stroke-dasharray="none" stroke-opacity="" data-original="#000000"></path><path d="M0 0v203.75a5.95 5.95 0 0 0 5.95 5.95h354.127a5.95 5.95 0 0 0 5.95-5.95V0a5.95 5.95 0 0 0-5.95-5.95H5.95A5.95 5.95 0 0 0 0 0" style="fill-opacity:1;fill-rule:nonzero;stroke:none" transform="translate(43.219 126.346)" fill="#ffffff" data-original="#ffffff"></path><path d="M0 0v203.75a5.95 5.95 0 0 0 5.95 5.95h-33.781a5.95 5.95 0 0 1-5.95-5.95V0a5.95 5.95 0 0 1 5.95-5.95H5.95A5.95 5.95 0 0 0 0 0" style="fill-opacity:1;fill-rule:nonzero;stroke:none" transform="translate(77 126.346)" fill="#eaf9fa" data-original="#eaf9fa"></path><path d="M0 0h-85.554v-215.649H0a5.952 5.952 0 0 1 5.953 5.952V-5.953A5.953 5.953 0 0 1 0 0" style="fill-opacity:1;fill-rule:nonzero;stroke:none" transform="translate(403.293 336.045)" fill="#fd9aa0" data-original="#fd9aa0"></path><path d="M317.739 120.396h33.754v215.65h-33.754z" style="fill-opacity:1;fill-rule:nonzero;stroke:none" fill="#fd8087" data-original="#fd8087"></path><path d="M0 0h366.026" style="stroke-width:15;stroke-linecap:round;stroke-linejoin:round;stroke-miterlimit:10;stroke-dasharray:none;stroke-opacity:1" transform="translate(43.22 174.308)" fill="none" stroke="#000000" stroke-width="15" stroke-linecap="round" stroke-linejoin="round" stroke-miterlimit="10" stroke-dasharray="none" stroke-opacity="" data-original="#000000"></path><path d="M0 0v-215.649" style="stroke-width:15;stroke-linecap:round;stroke-linejoin:round;stroke-miterlimit:10;stroke-dasharray:none;stroke-opacity:1" transform="translate(226.232 336.045)" fill="none" stroke="#000000" stroke-width="15" stroke-linecap="round" stroke-linejoin="round" stroke-miterlimit="10" stroke-dasharray="none" stroke-opacity="" data-original="#000000"></path><path d="M0 0v-215.649" style="stroke-width:15;stroke-linecap:round;stroke-linejoin:round;stroke-miterlimit:10;stroke-dasharray:none;stroke-opacity:1" transform="translate(317.74 336.045)" fill="none" stroke="#000000" stroke-width="15" stroke-linecap="round" stroke-linejoin="round" stroke-miterlimit="10" stroke-dasharray="none" stroke-opacity="" data-original="#000000"></path><path d="M0 0v-215.649" style="stroke-width:15;stroke-linecap:round;stroke-linejoin:round;stroke-miterlimit:10;stroke-dasharray:none;stroke-opacity:1" transform="translate(134.726 336.045)" fill="none" stroke="#000000" stroke-width="15" stroke-linecap="round" stroke-linejoin="round" stroke-miterlimit="10" stroke-dasharray="none" stroke-opacity="" data-original="#000000"></path><path d="M0 0h366.026" style="stroke-width:15;stroke-linecap:round;stroke-linejoin:round;stroke-miterlimit:10;stroke-dasharray:none;stroke-opacity:1" transform="translate(42.544 228.22)" fill="none" stroke="#000000" stroke-width="15" stroke-linecap="round" stroke-linejoin="round" stroke-miterlimit="10" stroke-dasharray="none" stroke-opacity="" data-original="#000000"></path><path d="M0 0h366.026" style="stroke-width:15;stroke-linecap:round;stroke-linejoin:round;stroke-miterlimit:10;stroke-dasharray:none;stroke-opacity:1" transform="translate(42.544 282.133)" fill="none" stroke="#000000" stroke-width="15" stroke-linecap="round" stroke-linejoin="round" stroke-miterlimit="10" stroke-dasharray="none" stroke-opacity="" data-original="#000000"></path><path d="M0 0h209.293a5.953 5.953 0 0 1 5.953 5.953v203.744a5.953 5.953 0 0 1-5.953 5.953h-354.121a5.954 5.954 0 0 1-5.953-5.953V5.953A5.954 5.954 0 0 1-144.828 0H-35" style="stroke-width:15;stroke-linecap:round;stroke-linejoin:round;stroke-miterlimit:10;stroke-dasharray:none;stroke-opacity:1" transform="translate(194 120.395)" fill="none" stroke="#000000" stroke-width="15" stroke-linecap="round" stroke-linejoin="round" stroke-miterlimit="10" stroke-dasharray="none" stroke-opacity="" data-original="#000000"></path><path d="M0 0c0-65.081-52.759-117.84-117.84-117.84S-235.68-65.081-235.68 0s52.759 117.84 117.84 117.84S0 65.081 0 0" style="fill-opacity:1;fill-rule:nonzero;stroke:none" transform="translate(504.5 375.826)" fill="#ffe177" data-original="#ffe177"></path><path d="M0 0c0 55.937 38.975 102.771 91.25 114.827a118.185 118.185 0 0 1-26.59 3.013C-.421 117.84-53.18 65.081-53.18 0S-.421-117.84 64.66-117.84c9.145 0 18.045 1.042 26.59 3.013C38.975-102.771 0-55.937 0 0" style="fill-opacity:1;fill-rule:nonzero;stroke:none" transform="translate(322 375.826)" fill="#ffd15c" data-original="#ffd15c"></path><path d="M0 0c0-65.081-52.759-117.84-117.84-117.84S-235.68-65.081-235.68 0s52.759 117.84 117.84 117.84S0 65.081 0 0Z" style="stroke-width:15;stroke-linecap:round;stroke-linejoin:round;stroke-miterlimit:10;stroke-dasharray:none;stroke-opacity:1" transform="translate(504.5 375.826)" fill="none" stroke="#000000" stroke-width="15" stroke-linecap="round" stroke-linejoin="round" stroke-miterlimit="10" stroke-dasharray="none" stroke-opacity="" data-original="#000000"></path><path d="M0 0c0-46.024-37.31-83.333-83.334-83.333-46.023 0-83.334 37.309-83.334 83.333s37.311 83.333 83.334 83.333C-37.31 83.333 0 46.024 0 0" style="fill-opacity:1;fill-rule:nonzero;stroke:none" transform="translate(469.994 375.826)" fill="#ffffff" data-original="#ffffff"></path><path d="M0 0c0 39.555 27.568 72.649 64.533 81.178a83.535 83.535 0 0 1-18.873 2.155C-.363 83.333-37.674 46.024-37.674 0S-.363-83.333 45.66-83.333c6.492 0 12.808.75 18.873 2.155C27.568-72.649 0-39.555 0 0" style="fill-opacity:1;fill-rule:nonzero;stroke:none" transform="translate(341 375.826)" fill="#eaf9fa" data-original="#eaf9fa"></path><path d="M0 0c-7.917 37.783-41.417 66.159-81.553 66.159-46.023 0-83.334-37.309-83.334-83.333s37.311-83.334 83.334-83.334C-41.649-100.508-8.315-72.455-.15-35" style="stroke-width:15;stroke-linecap:round;stroke-linejoin:round;stroke-miterlimit:10;stroke-dasharray:none;stroke-opacity:1" transform="translate(468.213 393)" fill="none" stroke="#000000" stroke-width="15" stroke-linecap="round" stroke-linejoin="round" stroke-miterlimit="10" stroke-dasharray="none" stroke-opacity="" data-original="#000000"></path><path d="M0 0v-56.248h45.591" style="fill-opacity:1;fill-rule:nonzero;stroke:#000000;stroke-width:15;stroke-linecap:round;stroke-linejoin:round;stroke-miterlimit:10;stroke-dasharray:none;stroke-opacity:1" transform="translate(386.66 432.073)" data-original="#000000"></path><path d="M0 0c-6.575 0-11.906-5.331-11.906-11.906v-16.411c0-6.576 5.331-11.907 11.906-11.907h50.599V0Z" style="fill-opacity:1;fill-rule:nonzero;stroke:none" transform="translate(19.406 58.558)" fill="#fd9aa0" data-original="#fd9aa0"></path><path d="M0 0v16.411c0 6.576 5.33 11.906 11.906 11.906h-25.5c-6.576 0-11.906-5.33-11.906-11.906V0c0-6.576 5.33-11.906 11.906-11.906h25.5C5.33-11.906 0-6.576 0 0" style="fill-opacity:1;fill-rule:nonzero;stroke:none" transform="translate(33 30.24)" fill="#fd8087" data-original="#fd8087"></path><path d="M0 0c-6.575 0-11.906-5.331-11.906-11.906v-16.411c0-6.576 5.331-11.907 11.906-11.907h50.599V0Z" style="stroke-width:15;stroke-linecap:round;stroke-linejoin:round;stroke-miterlimit:10;stroke-dasharray:none;stroke-opacity:1" transform="translate(19.406 58.558)" fill="none" stroke="#000000" stroke-width="15" stroke-linecap="round" stroke-linejoin="round" stroke-miterlimit="10" stroke-dasharray="none" stroke-opacity="" data-original="#000000"></path><path d="M70.005 18.335h335.733v40.223H70.005Z" style="fill-opacity:1;fill-rule:nonzero;stroke:none" fill="#ffe177" data-original="#ffe177"></path><path d="M70.004 18.335H104v40.223H70.004Z" style="fill-opacity:1;fill-rule:nonzero;stroke:none" fill="#ffd15c" data-original="#ffd15c"></path><path d="M0 0h55.178v40.223h-335.735V0H-35" style="stroke-width:15;stroke-linecap:round;stroke-linejoin:round;stroke-miterlimit:10;stroke-dasharray:none;stroke-opacity:1" transform="translate(350.56 18.335)" fill="none" stroke="#000000" stroke-width="15" stroke-linecap="round" stroke-linejoin="round" stroke-miterlimit="10" stroke-dasharray="none" stroke-opacity="" data-original="#000000"></path><path d="m0 0-49.631 17.278v-40.223L0-5.667C2.685-4.732 2.685-.935 0 0" style="fill-opacity:1;fill-rule:nonzero;stroke:none" transform="translate(455.37 41.28)" fill="#ffcebf" data-original="#ffcebf"></path><path d="m0 0-19.369 6.743V-12.41L0-5.667C2.685-4.732 2.685-.935 0 0" style="fill-opacity:1;fill-rule:nonzero;stroke:none" transform="translate(455.37 41.28)" fill="#000000" data-original="#000000"></path><path d="m0 0-49.631 17.278v-40.223L0-5.667C2.685-4.732 2.685-.935 0 0Z" style="stroke-width:15;stroke-linecap:round;stroke-linejoin:round;stroke-miterlimit:10;stroke-dasharray:none;stroke-opacity:1" transform="translate(455.37 41.28)" fill="none" stroke="#000000" stroke-width="15" stroke-linecap="round" stroke-linejoin="round" stroke-miterlimit="10" stroke-dasharray="none" stroke-opacity="" data-original="#000000"></path><path d="M0 0h-19.766a5 5 0 0 0-5 5v45.959a5 5 0 0 0 5 5H0a5 5 0 0 0 5-5V5a5 5 0 0 0-5-5" style="fill-opacity:1;fill-rule:nonzero;stroke:none" transform="translate(67.984 403.242)" fill="#ffe177" data-original="#ffe177"></path><path d="M0 0h-19.766a5 5 0 0 0-5 5v45.959a5 5 0 0 0 5 5H0a5 5 0 0 0 5-5V5a5 5 0 0 0-5-5Z" style="stroke-width:15;stroke-linecap:round;stroke-linejoin:round;stroke-miterlimit:10;stroke-dasharray:none;stroke-opacity:1" transform="translate(67.984 403.242)" fill="none" stroke="#000000" stroke-width="15" stroke-linecap="round" stroke-linejoin="round" stroke-miterlimit="10" stroke-dasharray="none" stroke-opacity="" data-original="#000000"></path></g></g></svg>