<svg t="1683633153786" class="icon" viewBox="0 0 1024 1024" version="1.1" xmlns="http://www.w3.org/2000/svg" p-id="981" width="48" height="48"><path d="M170.675 218.75000029C379.85000029-24.66250029 767.75000029 23.37499971 912.725 307.8125h-348.48749971c-62.775 0-103.31250029-1.42499971-147.22500058 21.67499971-51.59999971 27.18749971-90.52499971 77.55000029-104.13749971 136.6875L170.675 218.78749971z" fill="#EA4335" p-id="982"></path><path d="M362.30000029 512c0 82.50000029 67.08750029 149.625 149.54999942 149.625 82.50000029 0 149.55000029-67.12499971 149.55000029-149.625s-67.08750029-149.625-149.55000029-149.625c-82.50000029 0-149.55000029 67.12499971-149.54999942 149.625z" fill="#4285F4" p-id="983"></path><path d="M569.89999971 707.8625c-83.96250029 24.93749971-182.17500029-2.73750029-235.98749971-95.625-41.10000029-70.875-149.625-259.94999971-198.93750029-345.89999971-172.76249971 264.75000029-23.85 625.6125 289.76250058 687.18749942l145.125-245.66249971z" fill="#34A853" p-id="984"></path><path d="M650.75000029 362.375a204.90000029 204.90000029 0 0 1 37.8 251.92500029c-35.6625 61.49999971-149.55000029 253.72500029-204.75 346.79999971 323.13750029 19.9125 558.74999971-296.775 452.32499971-598.76250029H650.75000029z" fill="#FBBC05" p-id="985"></path></svg>