<svg xmlns="http://www.w3.org/2000/svg" version="1.1" xmlns:xlink="http://www.w3.org/1999/xlink" xmlns:svgjs="http://svgjs.com/svgjs" width="48" height="48" x="0" y="0" viewBox="0 0 64 64" style="enable-background:new 0 0 512 512" xml:space="preserve" class=""><g><path fill="#aab2bd" d="M51 58h6v4h-6zM29 58h6v4h-6zM7 58h6v4H7z" data-original="#aab2bd"></path><path fill="#ccd1d9" d="M62 54v2c0 1.1-.9 2-2 2H48c-1.1 0-2-.9-2-2v-2zM40 54v2c0 1.1-.9 2-2 2H26c-1.1 0-2-.9-2-2v-2zM18 54v2c0 1.1-.9 2-2 2H4c-1.1 0-2-.9-2-2v-2z" data-original="#ccd1d9"></path><path fill="#69d6f4" d="M62 48v6H46v-6c0-1.1.9-2 2-2h12c1.1 0 2 .9 2 2zM40 50v4H24v-6c0-1.1.9-2 2-2h12c1.1 0 2 .9 2 2zM18 50v4H2v-6c0-1.1.9-2 2-2h12c1.1 0 2 .9 2 2zM39.71 32.72A6.018 6.018 0 0 0 42 28c0-3.31-2.69-6-6-6-.71 0-1.4.13-2.03.36-.18-3-1.55-5.68-3.65-7.56C31.8 7.5 38.26 2 46 2c8.84 0 16 7.16 16 16 0 8.17-6.12 14.91-14.02 15.88-.65.08-1.31.12-1.98.12-2.23 0-4.36-.46-6.29-1.28z" data-original="#69d6f4" class=""></path><path fill="#e6e9ed" d="M42 28c0 1.91-.9 3.62-2.29 4.72C38.69 33.52 37.4 34 36 34H12c-3.31 0-6-2.69-6-6s2.69-6 6-6h.05c.51-5.6 5.21-10 10.95-10 2.81 0 5.38 1.05 7.32 2.8 2.1 1.88 3.47 4.56 3.65 7.56.63-.23 1.32-.36 2.03-.36 3.31 0 6 2.69 6 6z" data-original="#e6e9ed"></path><circle cx="32" cy="28" r="2" fill="#ff826e" data-original="#ff826e"></circle><circle cx="24" cy="28" r="2" fill="#ff826e" data-original="#ff826e"></circle><circle cx="16" cy="28" r="2" fill="#ff826e" data-original="#ff826e"></circle><path d="M60 45h-5v-6h-6v-4.281c7.946-1.423 14-8.37 14-16.719 0-9.374-7.626-17-17-17-7.526 0-14.134 4.996-16.274 12.081A11.916 11.916 0 0 0 23 11c-5.958 0-10.902 4.263-11.837 10.05C7.696 21.465 5 24.424 5 28c0 3.859 3.14 7 7 7h3v4H9v6H4c-1.654 0-3 1.346-3 3v8c0 1.654 1.346 3 3 3h2v2H4v2h11.999v-2H14v-2h2c1.654 0 3-1.346 3-3v-5h4v5c0 1.654 1.346 3 3 3h2v2h-2v2h11.999v-2H36v-2h2c1.654 0 3-1.346 3-3v-5h4v5c0 1.654 1.346 3 3 3h2v2h-2v2h11.999v-2H58v-2h2c1.654 0 3-1.346 3-3v-8c0-1.654-1.346-3-3-3zm1 3v5H47v-5c0-.552.449-1 1-1h12c.551 0 1 .448 1 1zM46 33a14.92 14.92 0 0 1-4.498-.687A6.959 6.959 0 0 0 43 28c0-.34-.033-.672-.08-1h8.626c-1.292 3.613-3.314 6-5.546 6zm6.976-14c-.07 2.142-.354 4.179-.816 6h-9.845a7.04 7.04 0 0 0-3.065-3.194A29.897 29.897 0 0 1 39.035 19zm-13.952-2c.07-2.142.354-4.179.816-6h12.319c.462 1.821.746 3.858.816 6zm12.074 15.089c1.038-1.327 1.908-3.066 2.566-5.089h4.308a15.047 15.047 0 0 1-6.874 5.089zM59.256 25h-5.034c.43-1.84.689-3.861.752-6h5.975a14.878 14.878 0 0 1-1.693 6zm0-14a14.878 14.878 0 0 1 1.693 6h-5.975c-.063-2.139-.322-4.16-.752-6zm-1.284-2h-4.308c-.658-2.023-1.528-3.762-2.566-5.089A15.047 15.047 0 0 1 57.972 9zM46 3c2.232 0 4.254 2.387 5.546 6H40.454C41.746 5.387 43.768 3 46 3zm-5.086.894C39.871 5.223 38.997 6.968 38.336 9h-4.324a15.125 15.125 0 0 1 6.902-5.106zM32.744 11h5.034c-.43 1.84-.689 3.861-.752 6h-3.649a12.01 12.01 0 0 0-1.947-2.519A14.76 14.76 0 0 1 32.744 11zm4.421 10.105A6.99 6.99 0 0 0 36 21c-.389 0-.778.033-1.164.1a11.923 11.923 0 0 0-.534-2.1h2.732c.022.71.064 1.411.131 2.105zM12 33c-2.757 0-5-2.243-5-5 0-2.756 2.242-4.999 4.991-4.999h.002l.966.056.087-.964A9.942 9.942 0 0 1 23 13c5.286 0 9.665 4.137 9.969 9.418l.077 1.337 1.26-.453A4.996 4.996 0 0 1 36 23c2.757 0 5 2.243 5 5s-2.243 5-5 5zM4 47h12c.551 0 1 .448 1 1v5H3v-5c0-.552.449-1 1-1zm8 14H8v-2h4zm4-4H4c-.551 0-1-.448-1-1v-1h14v1c0 .552-.449 1-1 1zm3-8v-1c0-1.654-1.346-3-3-3h-5v-4h6v-6h14v10h-5c-1.654 0-3 1.346-3 3v1zm20 4H25v-5c0-.552.449-1 1-1h12c.551 0 1 .448 1 1zm-5 8h-4v-2h4zm4-4H26c-.551 0-1-.448-1-1v-1h14v1c0 .552-.449 1-1 1zm3-8v-1c0-1.654-1.346-3-3-3h-5V35h3c1.425 0 2.751-.43 3.858-1.165A16.877 16.877 0 0 0 46 35c.338 0 .667-.031 1-.051V41h6v4h-5c-1.654 0-3 1.346-3 3v1zm15 12h-4v-2h4zm4-4H48c-.551 0-1-.448-1-1v-1h14v1c0 .552-.449 1-1 1z" fill="#000000" data-original="#000000" class=""></path><path d="M16 25c-1.654 0-3 1.346-3 3s1.346 3 3 3 3-1.346 3-3-1.346-3-3-3zm0 4a1.001 1.001 0 0 1 0-2 1.001 1.001 0 0 1 0 2zM24 25c-1.654 0-3 1.346-3 3s1.346 3 3 3 3-1.346 3-3-1.346-3-3-3zm0 4a1.001 1.001 0 0 1 0-2 1.001 1.001 0 0 1 0 2zM32 25c-1.654 0-3 1.346-3 3s1.346 3 3 3 3-1.346 3-3-1.346-3-3-3zm0 4a1.001 1.001 0 0 1 0-2 1.001 1.001 0 0 1 0 2zM23 15v2c2.636 0 5.001 1.762 5.751 4.285l1.917-.57C29.667 17.35 26.514 15 23 15z" fill="#000000" data-original="#000000" class=""></path></g></svg>
