<svg xmlns="http://www.w3.org/2000/svg" version="1.1" xmlns:xlink="http://www.w3.org/1999/xlink" xmlns:svgjs="http://svgjs.com/svgjs" width="48" height="48" x="0" y="0" viewBox="0 0 256 256" style="enable-background:new 0 0 512 512" xml:space="preserve" class=""><g transform="matrix(6.123233995736766e-17,1,-1,6.123233995736766e-17,255.87103581428528,-0.02897334098817339)"><circle cx="34.2" cy="127.9" r="28.5" fill="#72c1e8" data-original="#72c1e8" class=""></circle><circle cx="34.2" cy="127.9" r="12.9" fill="#fc5d3d" data-original="#fc5d3d"></circle><circle cx="230.3" cy="127.9" r="20" fill="#fc5d3d" data-original="#fc5d3d"></circle><circle cx="162.5" cy="25.6" r="20" fill="#f0c020" data-original="#f0c020" class=""></circle><circle cx="162.5" cy="127.9" r="28.6" fill="#f0c020" data-original="#f0c020" class=""></circle><circle cx="162.5" cy="127.9" r="12.3" fill="#fc5d3d" data-original="#fc5d3d"></circle><circle cx="162.5" cy="230.3" r="19.7" fill="#f0c020" data-original="#f0c020" class=""></circle><circle cx="98.3" cy="76.8" r="20" fill="#72c1e8" data-original="#72c1e8" class=""></circle><circle cx="98.3" cy="179.1" r="19.3" fill="#72c1e8" data-original="#72c1e8" class=""></circle><path fill="#c5e5ff" d="M34.2 150.9c-1 0-2.1-.1-3.1-.2-1.4-.2-2.3-1.4-2.1-2.8s1.4-2.3 2.8-2.1c.8.1 1.6.2 2.4.2 9.9 0 18-8 18-18 0-4.8-1.9-9.3-5.3-12.7-1-1-1-2.6 0-3.5 1-1 2.6-1 3.5 0 4.3 4.3 6.7 10.1 6.7 16.2 0 12.6-10.2 22.9-22.9 22.9zm-13.5-4.3c-1-.7-1.9-1.5-2.8-2.4-1-1-1-2.6 0-3.5 1-1 2.6-1 3.5 0 .7.7 1.4 1.3 2.2 1.9 1.1.8 1.4 2.4.6 3.5-.8 1-2.3 1.3-3.5.5z" data-original="#c5e5ff"></path><path fill="#ffcbc2" d="M231.2 140.2c-.4-1.3.4-2.7 1.7-3.1 3.9-1.1 6.9-4.8 6.9-9.2 0-2.6-1-4.9-2.8-6.7-1-1-1-2.6 0-3.5 1-1 2.6-1 3.5 0 2.7 2.7 4.3 6.4 4.3 10.3 0 6.7-4.5 12.3-10.5 14-1.4.3-2.7-.5-3.1-1.8zm-8.5.1c-1-.6-1.9-1.3-2.7-2.1-1-1-1-2.6 0-3.5 1-1 2.6-1 3.5 0 .5.5 1.1 1 1.8 1.4 1.2.7 1.5 2.3.8 3.4-.7 1.2-2.3 1.6-3.4.8z" data-original="#ffcbc2"></path><path fill="#f9e5af" d="M162.5 151.1c-.9 0-1.8-.1-2.7-.2-1.4-.2-2.4-1.4-2.2-2.8s1.4-2.4 2.8-2.2c.7.1 1.4.1 2.1.1 9.9 0 18.1-8 18.1-18.1 0-4.8-1.9-9.4-5.3-12.8-1-1-1-2.6 0-3.5 1-1 2.6-1 3.5 0 4.4 4.4 6.8 10.2 6.8 16.4 0 12.9-10.5 23.1-23.1 23.1zm-13.1-4.1c-1.2-.8-2.3-1.7-3.3-2.7s-1-2.6 0-3.5c1-1 2.6-1 3.5 0 .8.8 1.7 1.5 2.6 2.1 1.1.8 1.4 2.3.6 3.5-.7 1.1-2.2 1.4-3.4.6z" data-original="#f9e5af"></path><path d="M34.2 158.9c8.3 0 16.4-3.3 22.6-9.8l23.1 18.4c-2.1 3.4-3.3 7.3-3.3 11.6 0 12 9.8 21.8 21.8 21.8 6 0 11.4-2.4 15.4-6.3l30 23.9c-2.1 3.4-3.4 7.4-3.4 11.8 0 12.2 9.9 22.2 22.2 22.2s22.2-9.9 22.2-22.2-9.9-22.2-22.2-22.2c-6.1 0-11.6 2.5-15.7 6.5l-30-23.9c2.1-3.4 3.3-7.3 3.3-11.6 0-4.2-1.2-8.2-3.3-11.6l23-18.3c6 6.4 14.2 9.8 22.7 9.8 16.4 0 29.8-12.6 31-28.6h14.3c1.2 11.3 10.8 20 22.4 20 12.4 0 22.5-10.1 22.5-22.5s-10.1-22.5-22.5-22.5c-11.6 0-21.1 8.8-22.4 20h-14.3c-1.3-15.9-14.6-28.6-31-28.6-9.2 0-17.9 4-23.8 11.1-.9 1.1-.7 2.7.3 3.5 1 .9 2.7.7 3.5-.3 5-5.9 12.3-9.3 20-9.3 14.4 0 26.1 11.8 26.1 26.1 0 14.4-11.8 26.1-26.1 26.1-14.4 0-26.1-11.8-26.1-26.1 0-1.4-1.1-2.5-2.5-2.5s-2.5 1.1-2.5 2.5c0 6.3 1.9 12.3 5.3 17.4l-23 18.3c-3.9-3.9-9.4-6.4-15.4-6.4S87 159.6 83 163.6l-23.1-18.4c3.4-5.1 5.3-11 5.3-17.3s-1.8-12.2-5.3-17.3l22.5-18c4.1 4.1 9.7 6.6 15.9 6.6 12.4 0 22.5-10.1 22.5-22.5 0-4.4-1.3-8.5-3.5-12l29.2-23.3c4.1 4.1 9.7 6.6 15.9 6.6 12.4 0 22.5-10.1 22.5-22.5 0-6.1-2.4-11.8-6.8-16.1-1-.9-2.6-.9-3.5 0-1 1-.9 2.6 0 3.5 3.4 3.3 5.3 7.8 5.3 12.5 0 9.7-7.9 17.5-17.5 17.5-9.7 0-17.5-7.9-17.5-17.5 0-8.1 5.7-15.3 13.6-17.1 1.3-.3 2.2-1.6 1.9-3-.3-1.3-1.7-2.2-3-1.9-10.1 2.3-17.5 11.3-17.5 22 0 4.4 1.3 8.5 3.5 12l-29.2 23.3c-4.1-4.1-9.7-6.6-15.9-6.6-12.4 0-22.5 10.1-22.5 22.5 0 4.4 1.3 8.5 3.5 12l-22.5 18c-6-6.4-14.1-9.8-22.6-9.8-8.9 0-17.4 3.8-23.3 10.5-.9 1-.8 2.6.2 3.5s2.7.8 3.5-.2c4.9-5.6 12-8.8 19.5-8.8 14.6 0 25.9 12.2 26 26 0 13.8-11.3 25.9-26 26-13.7 0-26-11-26-26.4 0-1.4-1.1-2.5-2.5-2.5s-2.5 1.1-2.5 2.5c.1 18.6 14.7 31.5 31.1 31.5zm128.3 54.2c9.5 0 17.2 7.7 17.2 17.2s-7.7 17.2-17.2 17.2-17.2-7.7-17.2-17.2 7.7-17.2 17.2-17.2zm50.2-85.2c0-9.7 7.9-17.5 17.5-17.5 9.7 0 17.5 7.9 17.5 17.5 0 9.7-7.9 17.5-17.5 17.5-9.6.1-17.5-7.8-17.5-17.5zM98.3 162.3c9.3 0 16.8 7.5 16.8 16.8s-7.5 16.8-16.8 16.8-16.8-7.5-16.8-16.8 7.6-16.8 16.8-16.8zm0-103.1c9.7 0 17.5 7.9 17.5 17.5 0 9.7-7.9 17.5-17.5 17.5-9.7 0-17.5-7.9-17.5-17.5s7.9-17.5 17.5-17.5z" fill="#000000" data-original="#000000" class=""></path><path d="M5.3 116.8c-.5 1.3.1 2.7 1.4 3.2s2.7-.1 3.2-1.4-.1-2.7-1.4-3.2c-1.3-.6-2.7.1-3.2 1.4zM49.6 127.9c0-8.5-6.9-15.4-15.4-15.4s-15.4 6.9-15.4 15.4 6.9 15.4 15.4 15.4c8.5.1 15.4-6.8 15.4-15.4zm-25.9 0c0-5.8 4.7-10.4 10.4-10.4s10.4 4.7 10.4 10.4c0 5.8-4.7 10.4-10.4 10.4s-10.4-4.6-10.4-10.4zM165.5 5.6c-.4 1.3.4 2.7 1.7 3.1 1.4.4 2.7-.5 3.1-1.7.4-1.3-.4-2.7-1.7-3.1s-2.7.4-3.1 1.7zM177.3 127.9c0-8.2-6.6-14.8-14.8-14.8s-14.8 6.6-14.8 14.8 6.6 14.8 14.8 14.8 14.8-6.6 14.8-14.8zm-24.6 0c0-5.4 4.4-9.8 9.8-9.8s9.8 4.4 9.8 9.8-4.4 9.8-9.8 9.8-9.8-4.4-9.8-9.8zM133.2 117.3c-.5 1.3.2 2.7 1.5 3.2s2.7-.2 3.2-1.5-.2-2.7-1.5-3.2c-1.2-.5-2.7.2-3.2 1.5z" fill="#000000" data-original="#000000" class=""></path><path d="M165 128.6v-1.3c0-1.4-1.1-2.5-2.5-2.5s-2.5 1.1-2.5 2.5v1.3c0 1.4 1.1 2.5 2.5 2.5s2.5-1.1 2.5-2.5zM36.7 128.6v-1.3c0-1.4-1.1-2.5-2.5-2.5s-2.5 1.1-2.5 2.5v1.3c0 1.4 1.1 2.5 2.5 2.5s2.5-1.1 2.5-2.5zM98.3 79.9c1.4 0 2.5-1.1 2.5-2.5v-1.3c0-1.4-1.1-2.5-2.5-2.5s-2.5 1.1-2.5 2.5v1.3c0 1.4 1.1 2.5 2.5 2.5zM160 24.9v1.3c0 1.4 1.1 2.5 2.5 2.5s2.5-1.1 2.5-2.5v-1.3c0-1.4-1.1-2.5-2.5-2.5s-2.5 1.1-2.5 2.5zM98.3 182.3c1.4 0 2.5-1.1 2.5-2.5v-1.3c0-1.4-1.1-2.5-2.5-2.5s-2.5 1.1-2.5 2.5v1.3c0 1.4 1.1 2.5 2.5 2.5zM162.5 233.5c1.4 0 2.5-1.1 2.5-2.5v-1.3c0-1.4-1.1-2.5-2.5-2.5s-2.5 1.1-2.5 2.5v1.3c0 1.4 1.1 2.5 2.5 2.5zM230.3 131.1c1.4 0 2.5-1.1 2.5-2.5v-1.3c0-1.4-1.1-2.5-2.5-2.5s-2.5 1.1-2.5 2.5v1.3c0 1.4 1.1 2.5 2.5 2.5zM172.3 81.5v8c0 1.4 1.1 2.5 2.5 2.5s2.5-1.1 2.5-2.5v-8c0-1.4-1.1-2.5-2.5-2.5s-2.5 1.1-2.5 2.5zM186.9 86.9l-5.5 5.5c-1 1-1 2.6 0 3.5 1 1 2.6 1 3.5 0l5.5-5.5c1-1 1-2.6 0-3.5-.9-1-2.5-1-3.5 0z" fill="#000000" data-original="#000000" class=""></path></g></svg>
